<?xml version="1.0" encoding="utf-8"?> <svg xmlns="http://www.w3.org/2000/svg" xmlns:xlink="http://www.w3.org/1999/xlink" version="1.1" id="Layer_1" x="0px" y="0px" viewBox="0 0 664.3 199.5" style="enable-background:new 0 0 664.3 199.5;" xml:space="preserve"> <style type="text/css"> .st0{fill:#D11C56;} </style> <g> <g> <rect x="236.8" y="21.4" width="25.7" height="102"></rect> <rect x="392.4" y="21.4" width="25.7" height="102"></rect> <polygon points="514.8,85.3 465.5,21.4 465.5,21.4 439.8,21.4 439.8,123.6 465.5,123.6 465.5,59.6 514.8,123.6 514.8,123.6 540.7,123.6 540.7,21.4 514.8,21.4 "></polygon> <polygon points="172.6,82.4 147.7,21.4 119.8,21.4 161.9,123.6 183.6,123.6 225.6,21.4 197.8,21.4 "></polygon> <polygon points="375.5,21.4 343.4,21.4 310.7,64.5 310.7,21.4 285,21.4 285,123.6 310.7,123.6 310.7,78.4 345,123.6 379,123.6 334.8,70.3 "></polygon> <path d="M663.6,66.9h-51.7V87h22c-0.8,11-8.6,17.7-23,17.7s-25.7-14.2-25.7-31.6s9.6-31.6,25.7-31.6c12,0,19.5,6.2,23.3,15.5 l24.6-10.2c-7.8-17.1-24.1-28.6-47.4-28.6c-32.4,0-52.7,24.4-52.7,54.4s18.5,54.4,52.7,54.4c28.9,0,46.3-16.9,51.1-39.9 c1.1-4.6,1.6-9.4,1.6-14.5C663.9,70.6,663.9,68.7,663.6,66.9z"></path> </g> <path class="st0" d="M31.8,0.2H-0.1v199.2h31.9v-31.1l70.4-70.4L31.8,27.2V0.2z M57.7,97.7l-26,26v-52L57.7,97.7z"></path> </g> <g> <path d="M186.9,147.2v13.7h18v3.2h-18v14.7h-3.7V144H207v3.2H186.9z"></path> <path d="M213.3,146.2c-0.5-0.5-0.8-1.1-0.8-1.8s0.3-1.2,0.8-1.7s1.1-0.8,1.8-0.8c0.8,0,1.4,0.3,1.8,0.7c0.4,0.4,0.8,1,0.8,1.7 c0,0.8-0.3,1.4-0.8,1.8c-0.5,0.4-1.1,0.8-1.8,0.8C214.4,146.9,213.8,146.7,213.3,146.2z M213.4,152.7h3.5v26.1h-3.5V152.7z"></path> <path d="M247.9,155.3c2,1.9,2.9,4.7,2.9,8.3v15.1h-3.5V164c0-2.7-0.7-4.8-2.1-6.2c-1.4-1.5-3.3-2.1-5.8-2.1c-2.8,0-5,0.9-6.7,2.5 c-1.6,1.7-2.5,4-2.5,6.9v13.7h-3.5v-26.1h3.3v4.8c0.9-1.6,2.3-2.8,4-3.7c1.7-0.9,3.7-1.3,5.9-1.3 C243.3,152.5,245.9,153.4,247.9,155.3z"></path> <path d="M274,177.1c-0.7,0.6-1.5,1-2.5,1.4c-0.9,0.3-2,0.5-3.1,0.5c-2.5,0-4.4-0.7-5.6-2c-1.3-1.3-2-3.2-2-5.6v-15.7h-4.7v-3h4.7 v-5.7h3.5v5.7h8v3h-8v15.6c0,1.5,0.4,2.7,1.2,3.5c0.8,0.8,1.9,1.2,3.3,1.2c0.8,0,1.5-0.1,2.1-0.3c0.7-0.3,1.3-0.6,1.8-1L274,177.1z "></path> <path d="M302.3,166.8h-21.8c0.2,2.7,1.2,4.9,3.2,6.6s4.3,2.5,7.2,2.5c1.6,0,3.1-0.3,4.4-0.9c1.4-0.6,2.6-1.5,3.5-2.6l2,2.3 c-1.2,1.4-2.6,2.5-4.4,3.2c-1.7,0.8-3.7,1.1-5.7,1.1c-2.7,0-5-0.6-7.1-1.7c-2.1-1.1-3.7-2.7-4.9-4.7c-1.2-2.1-1.7-4.3-1.7-6.8 s0.5-4.8,1.6-6.8s2.7-3.6,4.5-4.7c2-1.1,4.1-1.7,6.5-1.7c2.4,0,4.6,0.6,6.5,1.7s3.4,2.7,4.5,4.7c1.1,2,1.6,4.3,1.6,6.8L302.3,166.8 z M283.3,157.9c-1.7,1.6-2.7,3.7-2.9,6.2h18.5c-0.3-2.6-1.2-4.7-2.9-6.2c-1.7-1.6-3.8-2.4-6.4-2.4 C287.1,155.5,285,156.3,283.3,157.9z"></path> <path d="M313.4,177.3c-2.1-1.1-3.6-2.7-4.8-4.7c-1.2-2.1-1.7-4.4-1.7-6.8c0-2.5,0.6-4.8,1.7-6.8c1.2-2.1,2.7-3.6,4.8-4.7 c2.1-1.1,4.4-1.7,6.9-1.7c2.2,0,4.3,0.4,6,1.3c1.8,0.9,3.2,2.1,4.2,3.8l-2.7,1.8c-0.9-1.3-2-2.2-3.3-2.9c-1.3-0.7-2.7-0.9-4.3-0.9 c-1.9,0-3.6,0.4-5,1.3c-1.5,0.9-2.7,2.1-3.5,3.6c-0.9,1.5-1.3,3.3-1.3,5.3c0,2.1,0.4,3.8,1.3,5.3c0.9,1.5,2.1,2.7,3.5,3.6 c1.5,0.9,3.2,1.3,5,1.3c1.5,0,3-0.3,4.3-0.9c1.3-0.6,2.4-1.6,3.3-2.9l2.7,1.8c-1,1.7-2.4,3-4.2,3.8c-1.8,0.9-3.8,1.3-6,1.3 C317.7,179,315.4,178.4,313.4,177.3z"></path> <path d="M358.1,155.3c2,1.9,2.9,4.7,2.9,8.3v15.1h-3.5V164c0-2.7-0.7-4.8-2.1-6.2c-1.4-1.5-3.3-2.1-5.8-2.1c-2.8,0-5,0.9-6.7,2.5 c-1.6,1.7-2.5,4-2.5,6.9v13.7H337V142h3.5v15.2c0.9-1.5,2.3-2.7,3.9-3.5c1.7-0.9,3.6-1.2,5.8-1.2 C353.6,152.5,356.1,153.4,358.1,155.3z"></path> <path d="M384.4,178.1c-2-0.6-3.4-1.4-4.5-2.3l1.6-2.7c1.1,0.9,2.5,1.5,4.1,2.1c1.6,0.5,3.3,0.9,5.1,0.9c2.4,0,4.1-0.3,5.3-1.1 c1.1-0.8,1.7-1.8,1.7-3.2c0-0.9-0.3-1.7-0.9-2.2s-1.5-0.9-2.4-1.2c-0.9-0.3-2.2-0.5-3.8-0.9c-2.1-0.4-3.8-0.8-5.1-1.2 c-1.3-0.4-2.4-1.1-3.3-2.1c-0.9-1-1.4-2.4-1.4-4.1c0-2.2,0.9-3.9,2.7-5.4c1.8-1.4,4.4-2.1,7.6-2.1c1.7,0,3.3,0.3,5,0.7 c1.7,0.4,3.1,1,4.2,1.8l-1.5,2.8c-2.1-1.5-4.7-2.2-7.7-2.2c-2.2,0-3.9,0.4-5,1.2s-1.7,1.8-1.7,3.2c0,1,0.3,1.8,0.9,2.4 c0.7,0.6,1.5,1,2.4,1.3s2.3,0.6,3.9,0.9c2.1,0.4,3.8,0.8,5,1.2c1.3,0.4,2.3,1.1,3.3,2.1c0.9,0.9,1.4,2.3,1.4,3.9 c0,2.3-0.9,4.1-2.8,5.5c-1.9,1.4-4.5,2-8,2C388.5,179,386.4,178.7,384.4,178.1z"></path> <path d="M411.7,177.3c-2.1-1.1-3.6-2.7-4.8-4.7c-1.2-2.1-1.7-4.3-1.7-6.8s0.6-4.8,1.7-6.8c1.2-2.1,2.7-3.6,4.8-4.7 c2.1-1.1,4.3-1.7,6.8-1.7s4.8,0.6,6.8,1.7c2.1,1.1,3.6,2.7,4.7,4.7c1.1,2.1,1.7,4.3,1.7,6.8s-0.6,4.8-1.7,6.8 c-1.1,2.1-2.7,3.6-4.7,4.7c-2.1,1.1-4.3,1.7-6.8,1.7S413.7,178.4,411.7,177.3z M423.4,174.6c1.5-0.9,2.7-2.1,3.4-3.6 c0.9-1.5,1.3-3.3,1.3-5.3c0-2-0.4-3.8-1.3-5.3c-0.9-1.5-2-2.7-3.4-3.6c-1.5-0.9-3.2-1.3-5-1.3c-1.9,0-3.5,0.4-5,1.3 c-1.5,0.9-2.7,2.1-3.5,3.6c-0.9,1.5-1.3,3.3-1.3,5.3c0,2,0.4,3.8,1.3,5.3c0.9,1.5,2,2.7,3.5,3.6s3.2,1.3,5,1.3 C420.4,175.8,422,175.4,423.4,174.6z"></path> <path d="M438.9,142h3.5v36.8h-3.5V142z"></path> <path d="M475.8,152.7v26.1h-3.3V174c-0.9,1.6-2.2,2.8-3.8,3.7c-1.6,0.9-3.5,1.3-5.6,1.3c-3.4,0-6.1-0.9-8-2.8c-2-1.9-3-4.7-3-8.4 v-15.1h3.5v14.9c0,2.7,0.7,4.8,2.1,6.2c1.4,1.5,3.3,2.1,5.8,2.1c2.7,0,4.9-0.9,6.5-2.5c1.6-1.7,2.4-4,2.4-6.9v-13.7L475.8,152.7 L475.8,152.7z"></path> <path d="M499.4,177.1c-0.7,0.6-1.5,1-2.5,1.4c-1,0.3-2,0.5-3.1,0.5c-2.5,0-4.4-0.7-5.6-2c-1.3-1.3-2-3.2-2-5.6v-15.7h-4.7v-3h4.7 v-5.7h3.5v5.7h8v3h-8v15.6c0,1.5,0.4,2.7,1.2,3.5c0.8,0.8,1.9,1.2,3.3,1.2c0.7,0,1.5-0.1,2.1-0.3c0.7-0.3,1.3-0.6,1.8-1 L499.4,177.1z"></path> <path d="M505.7,146.2c-0.5-0.5-0.8-1.1-0.8-1.8s0.3-1.2,0.8-1.7c0.5-0.5,1.1-0.8,1.8-0.8s1.4,0.3,1.8,0.7c0.5,0.5,0.8,1,0.8,1.7 c0,0.8-0.3,1.4-0.8,1.8c-0.5,0.5-1.1,0.8-1.8,0.8C506.8,146.9,506.2,146.7,505.7,146.2z M505.8,152.7h3.5v26.1h-3.5V152.7z"></path> <path d="M523,177.3c-2.1-1.1-3.6-2.7-4.8-4.7c-1.2-2.1-1.7-4.3-1.7-6.8s0.6-4.8,1.7-6.8c1.2-2.1,2.7-3.6,4.8-4.7 c2.1-1.1,4.3-1.7,6.8-1.7c2.5,0,4.8,0.6,6.8,1.7c2.1,1.1,3.6,2.7,4.7,4.7c1.1,2.1,1.7,4.3,1.7,6.8s-0.6,4.8-1.7,6.8 s-2.7,3.6-4.7,4.7c-2.1,1.1-4.3,1.7-6.8,1.7C527.3,179,525.1,178.4,523,177.3z M534.8,174.6c1.5-0.9,2.7-2.1,3.4-3.6 c0.9-1.5,1.3-3.3,1.3-5.3c0-2-0.4-3.8-1.3-5.3c-0.9-1.5-2-2.7-3.4-3.6c-1.5-0.9-3.2-1.3-5-1.3c-1.9,0-3.5,0.4-5,1.3 c-1.5,0.9-2.7,2.1-3.5,3.6s-1.3,3.3-1.3,5.3c0,2,0.4,3.8,1.3,5.3s2,2.7,3.5,3.6c1.5,0.9,3.2,1.3,5,1.3 C531.6,175.8,533.4,175.4,534.8,174.6z"></path> <path d="M571.3,155.3c2,1.9,2.9,4.7,2.9,8.3v15.1h-3.5V164c0-2.7-0.7-4.8-2.1-6.2c-1.4-1.5-3.3-2.1-5.8-2.1c-2.8,0-5,0.9-6.7,2.5 c-1.6,1.7-2.5,4-2.5,6.9v13.7h-3.5v-26.1h3.3v4.8c0.9-1.6,2.3-2.8,4-3.7c1.7-0.9,3.7-1.3,5.9-1.3 C566.8,152.5,569.4,153.4,571.3,155.3z"></path> <path d="M584.8,178.1c-2-0.6-3.4-1.4-4.5-2.3l1.6-2.7c1.1,0.9,2.5,1.5,4.1,2.1c1.6,0.5,3.3,0.9,5.1,0.9c2.4,0,4.1-0.3,5.3-1.1 c1.1-0.8,1.7-1.8,1.7-3.2c0-0.9-0.3-1.7-0.9-2.2c-0.6-0.5-1.5-0.9-2.4-1.2c-0.9-0.3-2.2-0.5-3.8-0.9c-2.1-0.4-3.8-0.8-5.1-1.2 c-1.3-0.4-2.4-1.1-3.3-2.1c-0.9-1-1.4-2.4-1.4-4.1c0-2.2,0.9-3.9,2.7-5.4c1.8-1.4,4.4-2.1,7.6-2.1c1.7,0,3.3,0.3,5,0.7 c1.7,0.4,3.1,1,4.2,1.8l-1.5,2.8c-2.1-1.5-4.7-2.2-7.7-2.2c-2.2,0-3.9,0.4-5,1.2c-1.1,0.8-1.7,1.8-1.7,3.2c0,1,0.3,1.8,0.9,2.4 c0.7,0.6,1.5,1,2.4,1.3c0.9,0.3,2.3,0.6,3.9,0.9c2.1,0.4,3.8,0.8,5,1.2c1.3,0.4,2.3,1.1,3.3,2.1c0.9,0.9,1.4,2.3,1.4,3.9 c0,2.3-0.9,4.1-2.8,5.5c-1.9,1.4-4.5,2-8,2C588.7,179,586.7,178.7,584.8,178.1z"></path> </g> </svg> 